<svg xmlns="http://www.w3.org/2000/svg" width="124" height="21" viewBox="0 0 124 21">
  <g fill="none" fill-rule="evenodd">
    <path fill="#E9E9BE" d="M4.1015625,0 L16.8984375,0 C19.1636679,0 21,1.83633208 21,4.1015625 L21,16.8984375 C21,19.1636679 19.1636679,21 16.8984375,21 L4.1015625,21 C1.83633208,21 0,19.1636679 0,16.8984375 L0,4.1015625 C0,1.83633208 1.83633208,0 4.1015625,0 Z"/>
    <path fill="#CED4B5" d="M21,12.140625 L21,16.8984375 C21,19.1636679 19.1636679,21 16.8984375,21 L4.1015625,21 C2.99683334,21 1.99411382,20.5632448 1.25665585,19.8529863 L21,12.140625 Z"/>
    <path fill="#B4C287" d="M1.16573418e-15,7.21875 L19.7347212,19.8612672 C18.9980791,20.566638 17.9988669,21 16.8984375,21 L4.1015625,21 C1.83633208,21 1.16573418e-15,19.1636679 1.16573418e-15,16.8984375 L1.16573418e-15,7.21875 Z"/>
    <path fill="#5C938B" d="M12.7277888,15.371762 L19.8206193,19.7765748 C19.0767153,20.5317913 18.0422544,21 16.8984375,21 L4.1015625,21 C2.99966642,21 1.99925745,20.565482 1.26233473,19.8584453 L12.7277888,15.371762 Z"/>
    <path fill="#213633" fill-rule="nonzero" d="M56,2.5 C60.418278,2.5 64,6.081722 64,10.5 C64,14.918278 60.418278,18.5 56,18.5 C51.581722,18.5 48,14.918278 48,10.5 C48,6.081722 51.581722,2.5 56,2.5 Z M73.5,2.5 C77.918278,2.5 81.5,6.081722 81.5,10.5 C81.5,14.918278 77.918278,18.5 73.5,18.5 C69.081722,18.5 65.5,14.918278 65.5,10.5 C65.5,6.081722 69.081722,2.5 73.5,2.5 Z M105,3 C108,3 111.5,5.99478714 111.5,10.5 C111.5,15.0052129 107.956124,18 105,18 L98,18 L98,3 L105,3 Z M85.9163763,3 C86.0601045,3 86.2229965,3.20080321 86.3283972,3.35140562 L92,12 L92,3 L95,3 L95,18 L93.0836237,18 C92.952215,18 92.7996871,17.8377182 92.6924147,17.6901893 L87,9 L87,18 L84,18 L84,3 L85.9163763,3 Z M122.892508,3 L122.892508,6 L117,6 L117,9.02624495 L122,9.02624495 L122,11.7920592 L117,11.7920592 L117,15 L123,15 L123,18 L114,18 L114,3 L122.892508,3 Z M42.0175234,3 L42.0175234,15.1130552 L48,15.1130552 L48,18 L39,18 L39,3 L42.0175234,3 Z M31,3 C34.6558496,3 35.6784962,4.25861625 36.1622807,5.83319103 C36.776186,7.38192493 36.3323895,9.1511142 35.0609498,10.2236324 L35.6316395,10.6757374 C36.77762,11.6272983 37.2271245,13.0268539 36.8631277,14.6040271 C36.4991308,16.1812003 35.0091295,18.0232227 32,17.9998376 L26,17.9998376 L26,3 L31,3 Z M56,5.5 C53.2385763,5.5 51,7.73857625 51,10.5 C51,13.2614237 53.2385763,15.5 56,15.5 C58.7614237,15.5 61,13.2614237 61,10.5 C61,7.73857625 58.7614237,5.5 56,5.5 Z M73.5,5.5 C70.7385763,5.5 68.5,7.73857625 68.5,10.5 C68.5,13.2614237 70.7385763,15.5 73.5,15.5 C76.2614237,15.5 78.5,13.2614237 78.5,10.5 C78.5,7.73857625 76.2614237,5.5 73.5,5.5 Z M105,6 C103.666667,6 102.333333,6.00173762 101,6.00521286 L101,15.002 L104,15 L104,15 C107.542343,15 108.5,12.5 108.5,10.5 C108.5,8.5 107,6 105,6 Z M32.0006001,12 L29,12 L29,15 L32.0006001,15 C33.0041074,15 34.005584,14.7835517 34.0000692,13.5037313 C33.994416,12.223911 33.003895,12 32.0006001,12 Z M32.0041763,6 L29,6 L29,9 L32,9 C32.9970714,9 33.5,8.28652587 33.5,7.55 C33.5,6.81347413 33.0147542,6 32.0041763,6 Z"/>
  </g>
</svg>
